<svg width="116" height="21" viewBox="0 0 116 21" fill="none" xmlns="http://www.w3.org/2000/svg">
<path d="M6.13984 18.9062C7.57083 18.9062 8.79219 18.4004 9.80391 17.3887C10.8156 16.3678 11.3215 15.1374 11.3215 13.6973C11.3215 12.2572 10.8156 11.0267 9.80391 10.0059C8.79219 8.98503 7.57083 8.47461 6.13984 8.47461H1.66914V18.9062H6.13984ZM1.66914 1.74805V7.38086H6.59101C7.38398 7.29883 7.97643 7.06185 8.36836 6.66992C8.92435 6.11393 9.20234 5.4349 9.20234 4.63281C9.20234 3.83984 8.91979 3.16081 8.35469 2.5957C7.7987 2.0306 7.12422 1.74805 6.33125 1.74805H1.66914ZM8.65547 7.87305C9.36641 8.17383 10.0181 8.625 10.6105 9.22656C11.841 10.457 12.4562 11.9473 12.4562 13.6973C12.4562 15.4382 11.841 16.9238 10.6105 18.1543C9.5806 19.1842 8.32734 19.7995 6.85078 20H0.57539V0.667969H6.34492C7.44779 0.667969 8.38203 1.05534 9.14766 1.83008C9.9224 2.60482 10.3098 3.53906 10.3098 4.63281C10.3098 5.72656 9.9224 6.66081 9.14766 7.43555C8.98359 7.60872 8.81953 7.75456 8.65547 7.87305ZM28.2429 10.416L25.3034 2.30859L22.3503 10.416H28.2429ZM25.864 0.667969L32.8777 20H31.7292L28.6394 11.4961H21.9538L18.8093 20H17.6472L24.7429 0.667969H25.864ZM40.0237 1.77539V12.1934H43.3049C44.7359 12.1934 45.9618 11.6875 46.9827 10.6758C48.0035 9.65495 48.5139 8.41992 48.5139 6.9707C48.5139 5.5306 48.0035 4.30469 46.9827 3.29297C45.9618 2.28125 44.7359 1.77539 43.3049 1.77539H40.0237ZM43.633 13.3008H40.0237V20H38.9299V0.667969H44.0022C45.4787 0.86849 46.732 1.48372 47.762 2.51367C48.9924 3.75326 49.6077 5.23893 49.6077 6.9707C49.6077 8.7207 48.9924 10.2109 47.762 11.4414C46.9052 12.2982 45.9254 12.8587 44.8225 13.123L49.2795 20H47.9397L43.633 13.3008ZM57.6287 1.77539V12.1934H60.9099C62.3409 12.1934 63.5668 11.6875 64.5877 10.6758C65.6085 9.65495 66.1189 8.41992 66.1189 6.9707C66.1189 5.5306 65.6085 4.30469 64.5877 3.29297C63.5668 2.28125 62.3409 1.77539 60.9099 1.77539H57.6287ZM61.238 13.3008H57.6287V20H56.5349V0.667969H61.6072C63.0837 0.86849 64.337 1.48372 65.367 2.51367C66.5974 3.75326 67.2127 5.23893 67.2127 6.9707C67.2127 8.7207 66.5974 10.2109 65.367 11.4414C64.5102 12.2982 63.5304 12.8587 62.4275 13.123L66.8845 20H65.5447L61.238 13.3008ZM83.3684 0.394531C86.1119 0.394531 88.4498 1.36523 90.3821 3.30664C92.3235 5.23893 93.2942 7.57227 93.2942 10.3066C93.2942 13.0501 92.3235 15.3926 90.3821 17.334C88.4498 19.2663 86.1119 20.2324 83.3684 20.2324C80.6341 20.2324 78.2962 19.2663 76.3548 17.334C74.4225 15.3926 73.4563 13.0501 73.4563 10.3066C73.4563 7.57227 74.4225 5.23893 76.3548 3.30664C78.2962 1.36523 80.6341 0.394531 83.3684 0.394531ZM83.3684 1.50195C80.944 1.50195 78.8704 2.36328 77.1477 4.08594C75.4251 5.80859 74.5638 7.88216 74.5638 10.3066C74.5638 12.7402 75.4251 14.8184 77.1477 16.541C78.8704 18.2637 80.944 19.125 83.3684 19.125C85.802 19.125 87.8802 18.2637 89.6028 16.541C91.3255 14.8184 92.1868 12.7402 92.1868 10.3066C92.1868 7.88216 91.3255 5.80859 89.6028 4.08594C87.8802 2.36328 85.802 1.50195 83.3684 1.50195ZM101.507 0.667969L114.358 18.6738V0.667969H115.452V20H113.77L101.22 2.41797V20H100.126V0.667969H101.507Z" fill="#383838"/>
</svg>
