<svg width="10" height="7" viewBox="0 0 10 7" fill="none" xmlns="http://www.w3.org/2000/svg">
<path d="M9.77925 1.08047C9.74578 1.00085 9.68949 0.932908 9.61748 0.885222C9.54546 0.837535 9.46094 0.812232 9.37457 0.812502H0.624567C0.538193 0.812232 0.453673 0.837535 0.381656 0.885222C0.309639 0.932908 0.253349 1.00085 0.219879 1.08047C0.188359 1.16128 0.180363 1.24937 0.196816 1.33453C0.213268 1.4197 0.253497 1.49846 0.312848 1.56172L4.68785 5.93672C4.77147 6.01758 4.88324 6.06278 4.99957 6.06278C5.11589 6.06278 5.22766 6.01758 5.31129 5.93672L9.68629 1.56172C9.74564 1.49846 9.78586 1.4197 9.80232 1.33453C9.81877 1.24937 9.81077 1.16128 9.77925 1.08047Z" fill="white"/>
</svg>
