<svg width="22" height="22" viewBox="0 0 22 22" fill="none" xmlns="http://www.w3.org/2000/svg">
<path d="M19.1036 4.22604C18.6354 3.75763 18.0795 3.38605 17.4677 3.13254C16.8558 2.87902 16.2001 2.74854 15.5378 2.74854C14.8755 2.74854 14.2197 2.87902 13.6079 3.13254C12.996 3.38605 12.4401 3.75763 11.9719 4.22604L11.0003 5.19771L10.0286 4.22604C9.08289 3.28032 7.80022 2.74903 6.46277 2.74903C5.12532 2.74903 3.84266 3.28032 2.89694 4.22604C1.95122 5.17176 1.41992 6.45443 1.41992 7.79187C1.41992 9.12932 1.95122 10.412 2.89694 11.3577L3.8686 12.3294L11.0003 19.461L18.1319 12.3294L19.1036 11.3577C19.572 10.8895 19.9436 10.3336 20.1971 9.72178C20.4506 9.10995 20.5811 8.45416 20.5811 7.79187C20.5811 7.12959 20.4506 6.4738 20.1971 5.86197C19.9436 5.25013 19.572 4.69423 19.1036 4.22604Z" stroke="#383838" stroke-width="1.2" stroke-linecap="round" stroke-linejoin="round"/>
</svg>
