<svg width="22" height="22" viewBox="0 0 22 22" fill="none" xmlns="http://www.w3.org/2000/svg">
<g clip-path="url(#clip0_296_1036)">
<path d="M11 19.25C15.5563 19.25 19.25 15.5563 19.25 11C19.25 6.44365 15.5563 2.75 11 2.75C6.44365 2.75 2.75 6.44365 2.75 11C2.75 15.5563 6.44365 19.25 11 19.25Z" stroke="#383838" stroke-miterlimit="10"/>
<path d="M3.22266 8.25H18.7773" stroke="#383838" stroke-linecap="round" stroke-linejoin="round"/>
<path d="M3.22266 13.75H18.7773" stroke="#383838" stroke-linecap="round" stroke-linejoin="round"/>
<path d="M11 19.0265C12.8985 19.0265 14.4375 15.4329 14.4375 11C14.4375 6.567 12.8985 2.97339 11 2.97339C9.10152 2.97339 7.5625 6.567 7.5625 11C7.5625 15.4329 9.10152 19.0265 11 19.0265Z" stroke="#383838" stroke-miterlimit="10"/>
</g>
<defs>
<clipPath id="clip0_296_1036">
<rect width="22" height="22" fill="white"/>
</clipPath>
</defs>
</svg>
